<mxfile host="app.diagrams.net" modified="2022-06-18T08:54:03.757Z" agent="5.0 (Windows NT 10.0; Win64; x64) AppleWebKit/537.36 (KHTML, like Gecko) Chrome/102.0.0.0 Safari/537.36" etag="1AWvPBL15DlgSDzhmioA" version="20.0.1" type="github">
  <diagram id="QnWkOK9IJVhlyYZw0pFj" name="Page-1">
    <mxGraphModel dx="813" dy="421" grid="1" gridSize="10" guides="1" tooltips="1" connect="1" arrows="1" fold="1" page="1" pageScale="1" pageWidth="827" pageHeight="1169" math="0" shadow="0">
      <root>
        <mxCell id="0" />
        <mxCell id="1" parent="0" />
        <mxCell id="GwbCdhbL_YOls-211GR5-1" value="Начало" style="ellipse;whiteSpace=wrap;html=1;" vertex="1" parent="1">
          <mxGeometry x="360" y="40" width="80" height="50" as="geometry" />
        </mxCell>
        <mxCell id="GwbCdhbL_YOls-211GR5-2" value="Конец" style="ellipse;whiteSpace=wrap;html=1;" vertex="1" parent="1">
          <mxGeometry x="374" y="1060" width="80" height="50" as="geometry" />
        </mxCell>
        <mxCell id="GwbCdhbL_YOls-211GR5-3" value="" style="endArrow=classic;html=1;rounded=0;exitX=0.5;exitY=1;exitDx=0;exitDy=0;entryX=0.5;entryY=0;entryDx=0;entryDy=0;" edge="1" parent="1" source="GwbCdhbL_YOls-211GR5-1" target="GwbCdhbL_YOls-211GR5-4">
          <mxGeometry width="50" height="50" relative="1" as="geometry">
            <mxPoint x="360" y="300" as="sourcePoint" />
            <mxPoint x="400" y="120" as="targetPoint" />
          </mxGeometry>
        </mxCell>
        <mxCell id="GwbCdhbL_YOls-211GR5-4" value="Ввод V_pp, V_pl,&lt;br&gt;V_zp, V_zl,&lt;br&gt;Vneed_Pav, &lt;br&gt;Vneed_Lev" style="shape=parallelogram;perimeter=parallelogramPerimeter;whiteSpace=wrap;html=1;fixedSize=1;" vertex="1" parent="1">
          <mxGeometry x="322.5" y="120" width="155" height="90" as="geometry" />
        </mxCell>
        <mxCell id="GwbCdhbL_YOls-211GR5-6" value="" style="endArrow=classic;html=1;rounded=0;exitX=0.5;exitY=1;exitDx=0;exitDy=0;entryX=0.5;entryY=0;entryDx=0;entryDy=0;" edge="1" parent="1" source="GwbCdhbL_YOls-211GR5-4" target="GwbCdhbL_YOls-211GR5-24">
          <mxGeometry width="50" height="50" relative="1" as="geometry">
            <mxPoint x="390" y="320" as="sourcePoint" />
            <mxPoint x="400" y="240" as="targetPoint" />
          </mxGeometry>
        </mxCell>
        <mxCell id="GwbCdhbL_YOls-211GR5-24" value="V_pp := Vneed_Pav,&lt;br&gt;V_pl&amp;nbsp;:= Vneed_Lev,&lt;br&gt;V_zp&amp;nbsp;:= Vneed_Pav,&lt;br&gt;V_zl := Vneed_Lev" style="rounded=0;whiteSpace=wrap;html=1;" vertex="1" parent="1">
          <mxGeometry x="327.5" y="240" width="145" height="80" as="geometry" />
        </mxCell>
      </root>
    </mxGraphModel>
  </diagram>
</mxfile>
